inDegrees=no
num_controls=7
num_derivatives=13
num_iterations=132
num_multipliers=7
num_parameters=0
num_slacks=7
num_states=26
objective=5.119577
objective_accelerations=0.629848
objective_balance=0.019858
objective_effort=0.163489
objective_height=4.255939
objective_ligament=0.050443
solver_duration=1446.978699
status=Solve_Succeeded
success=true
DataType=double
version=3
OpenSimVersion=4.4-2022-07-23-0e9fedc
endheader
time	/jointset/ground_pelvis/pelvis_tilt/value	/jointset/ground_pelvis/pelvis_tx/value	/jointset/ground_pelvis/pelvis_ty/value	/jointset/hip_l/hip_flexion_l/value	/jointset/hip_l/hip_adduction_l/value	/jointset/hip_l/hip_rotation_l/value	/jointset/back/lumbar_extension/value	/jointset/patellofemoral_l/patellar_flexion_l/value	/jointset/knee_l/knee_flexion_l/value	/jointset/knee_l/knee_adduction_l/value	/jointset/knee_l/knee_rotation_l/value	/jointset/ankle_l/ankle_angle_l/value	/jointset/subtalar_l/subtalar_angle_l/value	/jointset/ground_pelvis/pelvis_tilt/speed	/jointset/ground_pelvis/pelvis_tx/speed	/jointset/ground_pelvis/pelvis_ty/speed	/jointset/hip_l/hip_flexion_l/speed	/jointset/hip_l/hip_adduction_l/speed	/jointset/hip_l/hip_rotation_l/speed	/jointset/back/lumbar_extension/speed	/jointset/patellofemoral_l/patellar_flexion_l/speed	/jointset/knee_l/knee_flexion_l/speed	/jointset/knee_l/knee_adduction_l/speed	/jointset/knee_l/knee_rotation_l/speed	/jointset/ankle_l/ankle_angle_l/speed	/jointset/subtalar_l/subtalar_angle_l/speed	/forceset/tau_hip_flexion_l	/forceset/tau_hip_adduction_l	/forceset/tau_hip_rotation_l	/forceset/tau_knee_flexion_l	/forceset/tau_ankle_angle_l	/forceset/tau_subtalar_angle_l	/forceset/tau_lumbar_extension	lambda_cid13_p0	lambda_cid13_p1	lambda_cid13_p2	lambda_cid13_p3	lambda_cid13_p4	lambda_cid13_p5	lambda_cid14_p0	/jointset/ground_pelvis/pelvis_tilt/accel	/jointset/ground_pelvis/pelvis_tx/accel	/jointset/ground_pelvis/pelvis_ty/accel	/jointset/hip_l/hip_flexion_l/accel	/jointset/hip_l/hip_adduction_l/accel	/jointset/hip_l/hip_rotation_l/accel	/jointset/back/lumbar_extension/accel	/jointset/patellofemoral_l/patellar_flexion_l/accel	/jointset/knee_l/knee_flexion_l/accel	/jointset/knee_l/knee_adduction_l/accel	/jointset/knee_l/knee_rotation_l/accel	/jointset/ankle_l/ankle_angle_l/accel	/jointset/subtalar_l/subtalar_angle_l/accel	gamma_cid13_p0	gamma_cid13_p1	gamma_cid13_p2	gamma_cid13_p3	gamma_cid13_p4	gamma_cid13_p5	gamma_cid14_p0
1.5	-0.3283793179591188	0.06620974896041425	0.8027006053478052	0.9396097799921146	-0.3649399300639221	-0.05548936182343005	-0.3211481744559834	0.7705244990739941	0.7705244990740128	-0.05933271034628187	-0.1712275552396034	0.2726299604807655	0.1452470618093275	0.4408141219707004	0.2508834552301256	0.4374155798952942	-2.136419026620361	0.0006489808617172173	-0.5838164446120516	0.6192931662602643	-2.078808518812819	-2.078808518812742	-0.2824510327915651	0.04411330321215669	-0.5499023591244846	-0.2089767340001298	-0.1248795347763547	0.02843084038571172	0.006727015442266971	-0.1245605437971186	-0.05096805957418014	0.01595231905460371	0.1208814818539623	-39.36759811966577	-2.687968665132054	3.177727050464716	-1.251355871393486	-431.4878053472978	-64.65080520587338	-12.27527332159172	0.4620928206668748	0.4771625691616959	-0.6991705510447154	-1.134710988128337	0.2789829577805629	-0.2698091790206208	1.414111863197736	-1.064999642349818	-1.064999642349816	-0.2927850409341758	0.4582419160034804	-0.4614981806839285	0.3978502700233126	1.282486334014766e-07	3.953096320333614e-06	-1.2921551787795e-06	4.599743658541979e-07	4.394655323909202e-07	2.42168633476599e-06	4.789103884550036e-07
1.51	-0.3239482753378267	0.06874208458004039	0.8070389389342293	0.9181906516594126	-0.3649208787269814	-0.06134317315379929	-0.3148863218234725	0.7496853062646631	0.7496853062647065	-0.06217290344071488	-0.1707674487193005	0.2671080754399821	0.143175393790898	0.4453112315262565	0.2555399080395375	0.4301567314914712	-2.147094288296447	0.003170262354783502	-0.5868778378608117	0.6329654964119472	-2.088738610821325	-2.088738610821261	-0.2855642299352954	0.04792606354291734	-0.5543902470916877	-0.2053228269346468	-0.1206304557841524	0.0269233022957452	0.007589243064458847	-0.1220533396819133	-0.05038841826221209	0.01497009553609444	0.1173083439017993	-39.10806324808808	-2.396845618489626	3.234131241473376	-1.091229521317733	-428.6242705298873	-64.48299371582648	-13.11752333733224	0.4310688508928354	0.4534222250830916	-0.7533110595304275	-0.9870534017258973	0.2398222655852989	-0.3136354039061753	1.327014016635876	-0.9133999220036393	-0.9133999220058104	-0.3164921070383554	0.3453397148622215	-0.4296108079744689	0.3537465784188042	1.249033733079481e-07	4.170346416516628e-06	-1.292797403421869e-06	4.853576675702311e-07	4.523921028309218e-07	2.530751279966393e-06	4.953917457955014e-07
1.52	-0.3194747518553884	0.0713196918454113	0.8113018702217197	0.8966741467811028	-0.3648763902709984	-0.06722546461785599	-0.308491101804343	0.7287555353468871	0.7287555353468917	-0.06504340951803622	-0.1702687052709227	0.261543876178881	0.1411411819738468	0.4493102941974872	0.2599377843790764	0.4223351201085437	-2.155894335747633	0.005736404668431228	-0.58951247135366	0.6459666435829137	-2.096924140505938	-2.096924140505889	-0.2885136293168299	0.0518406888036678	-0.5583652031883247	-0.2014854937248313	-0.1163813767917114	0.02541576420598173	0.008451470685839688	-0.1195461355666116	-0.04980877695017956	0.01398787201788502	0.1137352059498127	-38.84556603177806	-2.108729292598941	3.29385755108061	-0.9547842952681248	-425.7310325586168	-64.36313678750156	-13.95756166838991	0.3624834438019331	0.425447275187058	-0.8117231468655871	-0.7596681431483553	0.2879551218969342	-0.1844572278381664	1.279875267054448	-0.7160871775715202	-0.7160871775715157	-0.2600254884950186	0.4786149020014313	-0.3589118065707537	0.4345354988897737	1.142416156510514e-07	4.347870691251862e-06	-1.226433348739865e-06	5.091069369324363e-07	4.489250949070074e-07	2.587204330816022e-06	5.007992366242525e-07
1.53	-0.3149636484542562	0.07393983328873595	0.8154838614839555	0.8750791159879847	-0.3648058101664376	-0.07313266746850082	-0.3019691310438065	0.7077527557317747	0.7077527557317262	-0.06794182986185507	-0.1697306281800343	0.2559424664008018	0.1391465261309581	0.4528382682647358	0.2640317481079048	0.4139781788383076	-2.162789148970903	0.008396186866863952	-0.59187190329241	0.6583209091716428	-2.103326029636406	-2.103326029636359	-0.2911167140022555	0.05578416519100973	-0.5618354011832464	-0.1974060108948548	-0.1126593425628007	0.02510316143321829	0.009255665726449348	-0.1163028930063941	-0.05027245533873649	0.01221261549984877	0.1105078759622864	-39.00444556494661	-1.380223456935001	3.258020635188326	-0.4017838905692434	-423.1503703931688	-63.27663674320078	-14.79581090527672	0.3371571381235768	0.3926660757157241	-0.8603392703800697	-0.6059646136956205	0.2571614216719962	-0.2528108547424476	1.197212301873701	-0.5564750551164713	-0.5564750551167714	-0.25174614255451	0.3535111861051948	-0.3287032756794421	0.4000077618727137	9.580607933307592e-08	4.48318628069883e-06	-1.088875122275716e-06	5.311200469186993e-07	4.280399099714325e-07	2.587757243917957e-06	4.944407442842726e-07
1.54	-0.3104194247624497	0.07659917340014621	0.8195797514028337	0.8534248217223025	-0.3647081979093099	-0.07906168957410555	-0.2953268156079594	0.6866951101704302	0.6866951101704398	-0.0708645402891297	-0.1691528568895936	0.2503088287468287	0.1371937357337351	0.4559343523294522	0.2677775179962023	0.405114851437027	-2.167747030265345	0.01114283517950717	-0.5938763223451325	0.670035578644025	-2.107897329740156	-2.107897329740111	-0.2933716460471959	0.05977952873854137	-0.5648107783672266	-0.1931124045920249	-0.1089373083337383	0.02479055866050683	0.0100598607679632	-0.1130596504461692	-0.05073613372728779	0.01043735898186791	0.1072805459748907	-39.15881145826123	-0.6580908822098155	3.229577566897871	0.12311110176925	-420.5417547282522	-62.23864590243537	-15.631729147858	0.2761054432956351	0.3558085070808016	-0.913000373074468	-0.3722817573827997	0.3053283447390187	-0.113454650632598	1.151956043785109	-0.3499693722278191	-0.349969372227817	-0.1903949603979536	0.4889923340393884	-0.259947644382596	0.4773601934604307	1.170267613020428e-07	4.59364986709064e-06	-1.454332891987391e-06	5.335668651307698e-07	5.049892190799235e-07	2.811669561899215e-06	5.441247123554452e-07
1.55	-0.3058464021479231	0.07929438059461121	0.8235845939389549	0.8317301192533846	-0.3645834916625984	-0.08500739142812172	-0.2885708611730042	0.6656006211858035	0.6656006211857661	-0.07381060603775476	-0.1685344491503402	0.2446478856604344	0.1352838971352519	0.4585754295645988	0.2712166897505607	0.3957802215619341	-2.170872780432751	0.01381247002288912	-0.5952161045223736	0.6810354372431816	-2.110699358878172	-2.110699358878226	-0.2957774976337304	0.06390962427228253	-0.5672756845696519	-0.1888122130516398	-0.1046480309789356	0.02254178097051031	0.01080022681859363	-0.1111491459528031	-0.04981716044724328	0.009570750590189941	0.1037107362602362	-38.80841107601618	-0.4372861252468235	3.301985682651755	0.1658824992465394	-418.2478392545484	-62.46817214648774	-16.45614003106143	0.2439304272226359	0.3309872983335767	-0.9545494217298401	-0.2345774025752663	0.2498474255337989	-0.1363652277466352	1.056020102431183	-0.2002978083589049	-0.2002978083739198	-0.2555103506677476	0.3756893951009771	-0.2242743812493182	0.4124190476892818	1.839383034711798e-07	4.675479623875423e-06	-2.399352570336396e-06	5.134699123856194e-07	6.946608800217883e-07	3.29293075941533e-06	6.583793413351158e-07
1.56	-0.3012498044483098	0.08202258266436414	0.8274939191509249	0.8100137881315875	-0.3644316757931643	-0.09096491614920239	-0.2817085042851623	0.64448711628498	0.6444871162850032	-0.07677869632065851	-0.1678746062094491	0.2389653910574014	0.1334182745348466	0.4606493693436548	0.2743764930537915	0.3860113866067975	-2.172072760846386	0.0165647597220907	-0.5962408957586952	0.6913160692203381	-2.111700512967005	-2.111700512967158	-0.2977765529357103	0.06806656908840727	-0.5691210816951446	-0.184269204976776	-0.1003587536239583	0.0202930032806078	0.01154059287001453	-0.1092386414594155	-0.04889818716717451	0.008704142198628365	0.1001409265457174	-38.45831100261842	-0.2209046240820746	3.380213157950625	0.1844110224755025	-415.9772450251263	-62.7884792225497	-17.26337005138933	0.1626779520777308	0.2999348168551309	-0.999841389083198	0.01287219337161835	0.3218593159029441	-0.05045646244872781	1.008110719385173	0.01020563760872744	0.01020563760872754	-0.1090357034869767	0.494362190516117	-0.136045828996213	0.5259235003561411	2.127110373492887e-07	4.824968317237473e-06	-2.893223491944758e-06	5.189878253662381e-07	7.89898088041948e-07	3.598226785194761e-06	7.265009872104228e-07
